<svg width="198" height="198" viewBox="0 0 198 198" fill="none" xmlns="http://www.w3.org/2000/svg">
<circle cx="119" cy="91.1026" r="67.5" fill="#FFAB04" stroke="#292929" stroke-width="5"/>
<circle cx="50" cy="50" r="50" transform="matrix(-1 0 0 1 169 41)" fill="#FFE483"/>
<path d="M121.633 116V111.576C126.083 111.342 129.465 110.111 132.079 107.885C134.693 105.658 136 102.699 136 99.2715C136 95.5801 134.943 92.8555 132.608 91.127C130.244 89.1641 126.861 87.6699 121.883 86.7031H121.633V75.3555C125.025 75.8535 127.908 76.8203 130.772 78.8125L134.962 73.3926C130.772 70.668 126.323 69.2031 121.624 68.9687V66H117.703V68.959C113.782 69.1934 110.37 70.4238 107.756 72.6504C105.142 74.877 103.836 77.8359 103.836 81.2637C103.836 84.6914 104.893 87.416 107.228 89.1445C109.313 90.873 112.975 92.3379 117.674 93.334V104.906C114.003 104.408 110.341 102.68 106.699 99.7207L102 104.906C106.699 108.861 111.946 111.059 117.693 111.557V116H121.633ZM121.883 94.5547C124.497 95.2871 126.073 96.0195 127.111 96.7813C127.889 97.7773 128.418 98.7441 128.418 100.238C128.418 101.732 127.889 102.699 126.582 103.695C125.275 104.691 123.69 105.16 121.883 105.424V94.5547ZM112.744 83.9688C111.966 83.2363 111.437 82.0059 111.437 80.7754C111.437 79.3105 111.966 78.3145 112.994 77.3184C114.301 76.3223 115.608 75.8535 117.693 75.5898V86.1953C115.079 85.4336 113.522 84.7012 112.744 83.9688Z" fill="#292929"/>
<path d="M176.66 144.788C174.451 145.339 170.361 146.824 167.675 147.844C165.645 148.614 164.518 149.885 163.032 150.859C161.281 152.006 158.219 153.496 156.032 154.754C155.042 155.323 154.034 155.728 153.661 156.376C152.469 158.45 159.499 156.938 160.147 156.615C161.168 155.363 162.281 154.437 163.021 153.743C163.394 153.416 163.761 153.14 164.14 152.856" stroke="#00B9AA" stroke-width="10" stroke-linecap="round"/>
<path d="M146.008 144.706C144.922 144.706 141.292 145.124 135.643 145.864C134.246 146.048 133.033 145.972 133.255 145.972C137.379 145.972 139.557 145.655 141.748 145.078C144.527 144.345 147.692 143.129 151.459 142.334C157.572 141.045 162.154 139.856 166.039 138.747C168.553 138.031 170.296 136.164 171.822 135.629C174.013 134.86 169.706 139.001 167.944 140.794C166.402 142.364 165.088 143.962 164.538 144.858C164.056 145.642 166.655 145.655 167.867 145.551C170.897 145.29 173.577 143.23 176.795 140.818C178.143 139.807 177.352 136.842 176.932 136.229C174.952 133.349 172.024 142.357 169.403 145.961C167.456 148.64 165.697 150.29 164.177 151.614C162.584 153.001 159.749 153.146 157.376 153.884C155.172 154.569 152.824 155.78 149.786 156.785C149.043 157.031 148.45 157.363 147.84 157.629C147.229 157.895 146.628 158.104 147.521 157.219C153.244 151.547 157.401 150.1 162.03 147.458C162.913 146.954 163.371 146.612 163.319 146.346C163.266 146.08 162.664 145.871 161.753 146.024C160.842 146.178 159.639 146.7 150.781 151.671C141.922 156.641 125.445 166.044 116.535 170.992C105.227 177.273 102.159 178.157 101.124 178.317C97.9094 178.813 109.787 174.37 117.029 170.75C122.489 168.021 131.969 164.1 137.403 161.74C144.04 158.857 145.76 158.006 146.249 157.688C146.723 157.379 138.183 161.453 126.649 166.411C120.795 168.928 117.594 169.71 113.303 171.182C101.251 175.316 94.4212 176.46 90.3137 177.839C89.2927 178.181 88.1852 178.369 87.5747 178.423C87.516 178.428 88.167 178.163 95.0317 174.973C101.897 171.784 115.006 165.62 122.181 162.183C133.118 156.944 138.34 153.792 140.233 152.204C145.777 147.556 118.301 150.616 120.297 150.301C123.383 149.814 125.955 149.35 126.868 149.453C127.718 149.549 122.719 153.019 113.824 158.226C108.635 161.263 101.681 164.581 97.6687 166.514C90.9981 169.727 88.1888 170.559 87.0845 170.983C85.5598 171.568 90.8422 169.511 96.9908 166.839C102.13 164.605 111.559 160.928 116.933 158.677C125.639 155.03 128.864 152.842 130.516 151.148C130.757 150.902 129.862 150.62 129.131 150.512C127.576 150.283 119.114 151.971 107.152 154.398C99.6465 155.921 94.2828 156.837 89.2294 157.841C88.0833 158.069 86.9861 158.003 86.7893 157.898C86.2458 157.61 96.4769 156.116 110.616 154.216C116.317 153.45 119.103 153.57 119.927 153.57C123.129 153.57 108.278 155.356 101.507 156.836C93.5977 158.564 91.5857 158.528 90.4358 158.845C89.7874 159.023 88.9251 158.952 89.5137 158.482C94.2912 154.666 102.702 152.855 108.574 150.832C113.027 149.297 114.78 148.191 115.389 147.508C115.949 146.879 111.781 146.289 107.161 146.236C105.788 146.221 106.39 146.08 107.241 146.026C110.767 145.803 114.394 145.238 119.93 144.445C121.467 144.224 122.675 144.073 123.588 143.864C123.885 143.796 123.418 143.237 122.932 143.021C122.445 142.806 121.844 142.806 121.414 142.545C119.517 141.393 119.045 138.912 117.707 137.009C115.953 134.515 112.011 134.056 108.606 133.362C101.969 132.01 98.168 134.568 93.8436 135.521C89.4402 136.492 83.5965 137.418 77.4607 138.684C63.4211 141.582 60.3726 141.432 53.5807 141.383C52.0919 141.372 51.5014 140.913 51.0112 140.543C49.1907 139.167 49.1834 136.696 48.6968 134.898C48.2378 133.201 47.7255 131.941 47.0002 131.308C46.6162 130.972 45.7938 131.092 45.4822 131.353C44.1112 132.503 46.7487 134.461 46.8125 139.567C46.8429 142.004 45.2982 144.269 44.7478 146.597C44.5038 147.63 44.5656 148.606 44.3232 149.5C44.0539 150.494 43.9569 157.933 44.017 168.589C44.0406 172.771 44.5619 173.617 45.1669 174.302C46.3958 175.694 49.2927 174.573 63.3394 174.57C67.9249 174.569 70.5485 175.725 72.7427 176.889C74.5554 177.85 76.9924 177.732 79.3013 178.315C81.7247 178.926 83.9173 179.315 86.5287 179.583C89.0247 179.839 91.6877 180.056 105.195 180.007C110.246 179.989 111.865 179.005 112.353 178.636C115.732 176.084 99.6113 178.682 97.8436 179.79C96.1003 180.883 94.0203 181.323 92.6153 181.904C90.7739 182.665 97.2787 181.114 101.643 179.434C107.888 177.031 113.286 174.908 117.086 173.15C119.031 172.25 120.969 170.672 123.039 169.457C124.866 168.384 126.925 167.924 129.716 166.872C133.321 165.513 136.036 164.759 138.106 164.599C140.288 164.43 132.29 164.543 130.403 165.333C128.467 166.144 127.187 168.336 126.145 169.503C124.68 171.142 131.174 168.349 133.305 167.609C136.218 166.599 137.254 163.815 138.411 162.125C139.586 160.408 141.263 158.439 142.602 156.111C143.738 154.137 144.543 151.892 145.7 150.094C145.981 149.658 146.365 149.252 146.611 149.298C148.506 149.651 146.861 153.032 146.072 155.46C145.668 156.702 145.523 157.892 145.341 158.944C145.25 159.471 145.279 159.997 145.941 159.796C150.694 158.351 151.949 154.425 154.079 152.312C156.317 150.092 158.393 148.302 160.458 147.189C162.208 146.246 165.063 145.345 167.807 144.445C169.894 143.76 172.359 143.23 174.732 142.545C176.707 141.974 178.318 141.856 178.989 141.804C179.08 141.797 178.577 141.647 178.269 141.28C176.439 139.098 176.142 135.955 174.202 134.054C173.403 133.272 172.979 132.261 172.919 131.361C172.823 129.934 169.597 136.24 167.215 138.684C165.23 140.721 161.702 144.997 159.257 147.549C157.853 149.014 155.382 152.279 153.545 154.935C151.998 157.172 150.994 158.838 149.718 160.581C148.361 162.436 146.868 164.22 144.499 165.49C142.931 166.33 141.882 167.288 140.853 167.342C140.302 167.371 139.703 167.082 139.273 166.766C138.843 166.449 138.602 166.031 138.418 165.607C138.234 165.183 138.114 164.765 138.719 163.385" stroke="#00B9AA" stroke-width="10" stroke-linecap="round"/>
<path d="M171.374 147.848C171.098 148.032 170.823 148.216 170.497 148.448C170.172 148.68 169.805 148.956 168.87 148.961" stroke="#00B9AA" stroke-width="10" stroke-linecap="round"/>
<path d="M137.707 170.664C134.766 171.765 127.891 174.37 122.563 176.498C120.347 177.383 118.887 178.17 117.401 179.008C115.841 179.888 113.879 180.213 111.101 181.463C108.578 182.599 106.923 183.368 105.437 184.016C103.951 184.665 102.471 185.221 100.663 185.779C94.7626 187.599 84.6642 185.972 83.1785 185.135C81.7631 184.337 80.4907 183.373 79.2359 182.169C78.0005 180.983 76.1335 180.313 74.5531 179.847C73.8214 179.631 67.6501 179.567 58.702 179.521C54.1442 179.498 52.1106 179.105 50.028 178.78C49.0689 178.63 47.4975 178.732 46.6934 179.008C45.8893 179.283 45.8893 179.834 45.9811 179.934C46.0729 180.035 46.2565 179.667 46.4889 179.294C46.7212 178.922 46.9966 178.554 47.2804 178.176" stroke="#00B9AA" stroke-width="10" stroke-linecap="round"/>
<path d="M65.9222 182.349C67.8532 182.349 71.9433 182.533 74.3987 182.674C76.4206 182.789 78.6154 183.735 80.5686 184.25C82.9078 184.866 85.1984 184.575 87.0626 184.898C88.7615 185.192 90.3069 186.517 91.008 187.909C92.4066 190.684 99.4886 188.476 101.205 187.916C102.705 187.426 104.035 186.807 105.426 186.2C106.82 185.413 108.114 184.67 109.877 184.344C110.343 184.297 110.802 184.297 111.553 183.741" stroke="#00B9AA" stroke-width="10" stroke-linecap="round"/>
<path d="M189.513 140.045C186.239 141.066 181.022 143.127 179.4 143.713C179.092 143.824 178.75 143.885 178.813 143.784C180.175 141.595 186.875 140.876 189.405 140.013C189.797 139.879 190.258 139.637 190.333 139.668C191.476 140.138 188.146 141.275 187.15 142.1C185.756 143.253 183.895 143.881 182.726 144.433C182.143 144.709 181.356 145.527 180.6 146.214C179.038 147.636 187.768 140.407 190.263 138.608C190.854 138.183 191.225 137.645 191.501 137.542C192.44 137.187 189.451 139.078 188.111 140.213C187.801 140.454 187.529 140.658 187.287 140.865C187.045 141.072 186.842 141.275 186.838 141.074" stroke="#00B9AA" stroke-width="2" stroke-linecap="round"/>
<path d="M86.1084 161.537C84.8174 160.708 82.5915 159.223 80.2292 158.619C78.7248 158.234 77.6723 157.55 77.2076 157.182C76.9777 156.999 77.2939 156.446 77.5721 156.163C78.9386 154.776 82.6583 154.031 85.3112 152.962C88.4147 151.712 91.7566 150.041 94.1647 148.929C99.5187 146.458 105.006 145.595 108.173 144.568C109.124 144.259 109.756 143.733 109.943 143.27C110.923 140.853 102.541 143.263 100.582 143.96C99.8514 144.22 98.9128 144.379 97.9863 144.334C97.5871 144.315 97.427 143.831 97.3783 143.412C97.3296 142.993 97.4215 142.534 97.6524 142.16C98.6077 140.612 101.857 140.67 103.956 140.07C106.022 139.48 107.616 137.798 109.196 136.825C109.92 136.379 110.315 135.024 110.499 133.308C110.558 132.756 111.049 132.968 111.376 133.2C112.662 134.114 113.832 135.378 115.779 136.446C117.509 137.395 119.58 138.255 120.839 138.537C122.022 138.802 118.946 136.318 117.74 134.786C116.992 133.837 116.069 133.344 115.329 133.251C113.785 133.056 110.894 135.372 107.681 136.493C105.601 137.22 103.097 138.717 100.173 140.014C97.2585 141.308 94.6474 142.15 92.3882 143.074C88.3322 144.732 83.0728 145.397 78.2607 145.814C71.2073 146.426 69.1471 145.311 65.6719 144.014C62.8244 142.952 61.6292 141.788 60.053 140.074C58.394 138.27 58.3794 136.407 58.2388 135.713C57.9656 134.363 60.6887 134.365 64.2529 134.316C65.4267 134.3 66.1644 134.732 66.4454 135.148C67.7101 137.02 60.4439 137.053 57.8285 136.407C55.1225 135.739 53.9332 133.719 52.4933 132.605C52.1531 132.342 51.8909 132.05 51.8867 131.77C51.8826 131.491 52.158 131.215 52.4835 131.027C53.7933 130.272 56.5041 130.375 58.4656 131.021C59.9831 131.52 60.6887 133.43 61.9436 134.544C63.2632 135.716 64.8623 136.123 68.8883 136.264C70.1555 136.308 71.3535 136.496 71.6415 136.496C76.4628 136.496 65.1572 135.851 62.8381 135.293C60.7736 134.796 59.036 134.087 56.9019 133.392C54.5522 132.628 52.6366 131.399 49.9015 131.026C49.2709 130.94 48.9249 130.475 48.7816 131.158C48.2831 133.535 49.1002 136.393 50.298 139.53C52.3989 145.033 54.7567 149.192 55.3591 150.906C56.4576 154.032 55.4134 159.94 54.3477 163.196C53.4079 166.067 52.2637 168.755 51.0548 170.024C48.2854 172.93 48.2683 156.852 49.4675 153.796C50.6689 150.733 55.4968 158.56 57.0717 160.093C59.5425 162.499 61.4288 164.492 62.5473 166.308C63.6699 168.13 65.6024 169.779 67.4137 171.272C67.8032 171.592 68.2011 171.827 68.5739 171.923C68.9468 172.019 69.314 171.927 69.7787 171.604C72.8937 169.44 73.955 163.78 74.2833 158.267C74.4247 155.894 73.6823 154.493 73.2205 153.706C71.9394 151.526 69.1471 150.319 66.9212 149.668C62.8194 148.468 60.4327 150.402 58.6145 151.517C57.9161 151.945 57.6365 152.723 57.5892 153.463C57.4846 155.099 59.3921 156.796 61.7071 159.857C63.3374 162.012 66.0587 164.309 68.6171 165.107C69.1965 165.288 69.865 165.155 69.8747 165.017C70.0384 162.702 63.2262 165.422 60.5635 167.051C58.8274 168.113 58.563 170.433 58.6089 171.501C58.6664 172.838 60.0432 168.037 62.4027 161.24C63.306 158.637 63.9385 157.186 64.5423 155.792C64.6869 155.458 65.1405 155.327 65.5592 155.324C67.3643 155.312 69.3085 156.435 71.9086 157.268C74.2522 158.019 76.1754 158.104 78.3553 159.306C80.6936 160.595 84.1329 162.361 86.7511 163.667C88.7249 164.652 92.0237 164.598 93.6208 165.244C96.5016 166.408 87.2325 167.375 82.5553 168.905C80.3394 169.63 78.6962 170.068 77.3537 170.438C73.8398 171.407 90.9358 171.089 89.9188 171.274C88.7237 171.492 86.6788 171.554 84.7756 171.416C84.2334 171.377 84.617 171.003 85.0817 170.861C85.5464 170.719 86.0973 170.719 86.5647 170.857C88.5147 171.432 89.5362 174.414 90.4642 176.971C90.7798 177.841 90.8384 178.874 90.6088 179.848C90.5164 180.24 89.9202 180.179 86.5619 178.802C83.2036 177.425 76.96 174.67 71.7695 172.149C66.579 169.629 62.6308 167.425 58.3474 164.362C54.0639 161.298 49.5648 157.442 47.1094 155.226C43.5369 152.001 42.4309 150.692 40.6724 148.057C37.4327 143.202 36.0314 140.497 35.4249 138.728C34.9049 137.211 34.6347 128.049 34.2201 122.82C34.1727 122.221 32.9681 123.138 32.5507 123.326C32.3986 123.394 32.4088 122.779 32.5924 122.405C32.7761 122.031 33.1434 121.755 33.3326 121.338C33.5218 120.921 33.5218 120.37 33.3381 120.224C31.9497 121.096 30.2831 122.212 27.9696 122.768C26.9526 122.863 25.3917 122.863 24.34 122.863" stroke="#00B9AA" stroke-width="10" stroke-linecap="round"/>
<path d="M34.3564 119.524C33.6191 119.524 27.3615 118.422 23.0489 117.578C22.5811 117.486 22.2142 117.393 22.53 117.345C22.8458 117.298 23.8558 117.298 24.1465 117.527C28.6351 121.071 8.75589 118.965 9.35688 119.703C10.9166 121.62 10.6117 123.781 10.7981 126.516C10.9233 128.352 11.8193 130.269 11.5897 132.217C11.5077 132.913 10.9011 132.879 10.5269 132.741C10.1526 132.604 9.87718 132.328 9.68937 132.003C9.31603 131.356 9.31514 129.279 9.45287 126.912C9.4951 126.187 9.86605 126.474 10.2375 126.846C12.1517 128.76 12.8376 132.122 13.7628 135.279C14.5402 137.932 15.4308 140.102 16.3142 142.008C17.0997 143.703 18.1241 145.205 17.9432 147.525C17.9069 147.992 17.1169 147.904 16.6035 147.812C14.8029 147.49 14.0507 145.684 13.4901 144.061C12.9456 142.486 12.7486 140.77 11.8234 139.192C11.238 138.194 10.8009 137.242 10.7063 136.731C10.4505 135.351 14.4959 138.8 16.2196 141.218C17.8495 143.504 19.877 147.325 21.2292 149.568C22.0982 151.009 22.7595 152.717 23.5483 154.529C23.9224 155.388 24.6153 155.97 24.8491 156.433C24.9357 156.605 24.4401 156.713 24.0672 156.714C22.5992 156.72 21.3795 155.327 20.7242 154.031C20.3801 153.35 20.1691 152.637 19.9354 152.265C19.3034 151.261 22.5703 154.198 24.0561 155.921C25.2362 157.29 26.282 158.655 27.1195 160.372C27.8848 161.94 28.6971 163.018 28.7917 163.62C28.8307 163.868 28.3354 163.947 27.9625 163.948C26.407 163.954 25.1802 162.378 24.1563 161.355C24.0233 161.222 24.518 161.076 24.8908 161.12C26.5186 161.314 28.4077 162.923 30.1773 164.222C31.6151 165.278 32.4978 167.002 33.5175 168.488C34.041 169.251 34.6318 169.882 34.8656 170.437C34.9753 170.697 34.4566 170.992 34.1296 170.95C33.4074 170.858 32.7844 169.704 32.3183 169.238C31.071 167.99 34.8127 171.827 36.2985 172.71C36.6761 172.935 37.0386 173.218 36.9982 173.268C36.0528 174.441 34.1783 171.281 32.9694 169.89C32.6637 169.538 32.4143 169.15 32.456 168.915C32.4978 168.68 32.865 168.588 33.2379 168.678C34.8934 169.08 36.2039 170.619 37.4128 171.874C38.6373 173.145 39.0836 174.334 39.4092 174.567C40.7121 175.503 38.1627 168.799 37.9275 165.118C37.7994 163.111 37.3279 160.347 36.816 157.79C36.424 155.832 35.3831 152.929 33.7665 147.532C30.9565 138.152 29.9074 131.494 29.6737 130.797C29.2544 129.546 31.6631 133.241 34.2534 138.146C35.9048 141.273 37.506 143.908 40.28 148.348C42.7305 152.269 42.7925 154.203 43.4895 156.89C43.7754 157.991 43.8164 158.936 43.5869 159.677C43.4793 160.025 42.8982 160.052 42.2945 159.824C40.8459 159.276 36.343 153.702 30.3164 146.285C26.1601 141.169 23.878 136.596 23.0447 134.603C22.2453 132.69 21.5631 130.386 21.0025 128.48C20.7742 127.704 20.4474 127.039 19.8464 126.576C19.5487 126.346 19.1536 126.296 19.0562 126.524C18.3242 128.239 21.2737 129.535 23.54 133.968C27.2948 141.314 28.4133 145.105 29.8531 147.756C30.7826 149.468 31.6631 151.048 32.3141 152.674C32.4087 153.093 32.4087 153.552 32.3169 153.972C32.2251 154.392 32.0415 154.76 31.574 155.138" stroke="#00B9AA" stroke-width="10" stroke-linecap="round"/>
<path d="M89.8506 143.953C89.667 143.953 89.4833 143.953 83.3747 144.32C77.266 144.687 65.2379 145.422 53.6799 146.179" stroke="#00B9AA" stroke-width="10" stroke-linecap="round"/>
<path d="M163.173 132.842C162.489 132.91 160.172 133.999 158.102 135.24C156.939 135.937 155.974 136.748 154.912 137.402C153.048 138.547 150.352 139.358 148.466 139.94C148.025 140.076 147.677 140.045 147.808 139.909C149.209 138.453 152.044 137.719 156.231 135.389C157.92 134.448 159.325 133.328 160.459 132.434C160.709 132.237 160.905 132.023 160.942 131.783C160.979 131.542 160.843 131.27 160.604 131.096C159.546 130.329 157.831 130.92 155.911 131.434C154.289 131.868 152.141 132.359 148.286 133.79C141.252 136.402 136.631 138.876 135.844 139.457C134.397 140.526 133.614 141.687 132.72 143.024C132.512 143.334 132.31 143.539 132.374 143.61C132.647 143.909 133.4 143.407 133.71 143.1C133.835 142.976 133.544 142.724 133.643 142.517C134.473 140.779 138.94 140.465 140.434 139.703C142.789 138.503 134.511 140.798 132.723 141.039C132.312 141.094 131.902 141.074 131.828 140.938C131.295 139.961 133.808 139.703 136.472 139.122C140.499 138.243 144.502 137.785 146.763 137.134C148.311 136.688 152.369 135.87 157.819 134.396C162.285 133.189 165.086 132.089 167.074 131.132C169.28 130.071 170.095 127.982 170.581 126.741C170.962 125.767 168.461 125.916 163.672 125.914C161.658 125.913 160.777 127.011 159.508 127.627C158.383 128.173 157.345 128.177 157.103 128.178C155.85 128.184 160.279 127.356 163.946 126.638C167.475 125.947 169.066 125.163 170.233 124.75C171.011 124.475 171.744 124.2 172.224 124.064C172.412 124.011 172.297 123.656 172.5 123.516C173.07 123.123 173.939 123.444 174.521 123.717C176.041 124.43 176.75 125.772 177.574 126.7C178.441 127.676 179.15 128.723 180.215 129.376C181.343 130.068 182.648 130.986 183.781 131.878C185.475 133.213 186.698 134.557 187.143 134.795C187.358 134.91 187.385 135.238 187.284 135.446C186.292 136.065 184.381 137.02 183.103 137.95C182.862 138.123 182.59 138.259 182.105 138.399" stroke="#00B9AA" stroke-width="10" stroke-linecap="round"/>
<g clip-path="url(#clip0_42_121)">
<path d="M94.6169 196.682C88.2339 196.682 81.9162 194.333 75.7833 192.056C69.0222 189.543 62.0417 186.948 55.0915 187.561L38.1617 189.063V123.132L47.3373 122.317C53.0965 121.815 57.9146 124.052 62.5741 126.223C66.975 128.272 71.139 130.23 75.9224 129.817L106.487 124.271C117.408 122.415 123.419 128.757 127.064 134.531L160.51 118.984C173.048 113.355 187.118 119.005 195.568 133.032C197.765 136.678 196.541 141.52 192.844 143.828C188.513 146.53 184.197 149.233 179.929 151.911C142.694 175.239 110.54 195.385 96.801 196.587C96.0729 196.652 95.3449 196.682 94.6169 196.682ZM57.2322 183.121C64.2171 183.121 70.8543 185.588 77.2959 187.981C83.9678 190.463 90.2703 192.801 96.4185 192.258C109.117 191.147 142.392 170.299 177.618 148.225C181.891 145.55 186.207 142.842 190.541 140.138C192.236 139.082 192.821 136.898 191.843 135.272C184.582 123.224 172.711 118.26 162.316 122.937L125.312 140.138L124.321 138.408C121.018 132.653 116.413 126.986 107.241 128.552L76.4874 134.123C70.3479 134.629 65.4602 132.358 60.7399 130.161C56.4107 128.142 52.3097 126.231 47.7241 126.647L42.5105 127.109V184.312L54.709 183.23C55.5544 183.156 56.3955 183.121 57.2322 183.121Z" fill="#292929"/>
<path d="M86.0432 164.598C85.0283 164.598 84.1199 163.886 83.9156 162.851C83.6809 161.673 84.4437 160.53 85.6216 160.293C97.7267 157.874 111.338 152.337 127.179 143.387L124.323 138.408C123.726 137.367 124.086 136.037 125.125 135.442C126.166 134.848 127.496 135.207 128.092 136.244L132.032 143.113C132.627 144.154 132.269 145.482 131.232 146.078C114.165 155.903 99.5262 161.947 86.4714 164.555C86.3279 164.585 86.1845 164.598 86.0432 164.598Z" fill="#292929"/>
<path d="M34.8605 196.682H8.75515C4.53682 196.682 1.10522 193.251 1.10522 189.033L1.10522 118.862C1.10522 114.646 4.53682 111.212 8.75515 111.212H34.8605C39.0788 111.212 42.5104 114.644 42.5104 118.862V189.033C42.5083 193.251 39.0767 196.682 34.8605 196.682ZM8.75515 115.561C6.93394 115.561 5.45177 117.043 5.45177 118.864L5.45177 189.033C5.45177 190.854 6.93394 192.336 8.75515 192.336H34.8605C36.6817 192.336 38.1639 190.854 38.1639 189.033V118.862C38.1639 117.041 36.6817 115.559 34.8605 115.559L8.75515 115.561Z" fill="#292929"/>
<path d="M3.37903 125.103L4.1987 129.05L4.8521 131.891L5.82639 135.362L7.12155 139.464L8.25045 142.46L9.37935 145.456L11.3046 149.236L13.2299 153.017L15.9515 157.582L21.7041 165.762L27.9204 172.515L34.7669 178.948C34.7669 178.948 39.4179 182.383 42.3981 184.584L45.4173 186.617L47.1647 187.711L48.912 188.805" stroke="#292929" stroke-width="3.5"/>
</g>
<defs>
<clipPath id="clip0_42_121">
<rect width="197.992" height="197.992" rx="90" fill="white"/>
</clipPath>
</defs>
</svg>
